<?xml version="1.0" standalone="no"?>
<!DOCTYPE svg PUBLIC "-//W3C//DTD SVG 20010904//EN"
 "http://www.w3.org/TR/2001/REC-SVG-20010904/DTD/svg10.dtd">
<svg version="1.0" xmlns="http://www.w3.org/2000/svg"
 width="500.000000pt" height="500.000000pt" viewBox="0 0 500.000000 500.000000"
 preserveAspectRatio="xMidYMid meet">

<g transform="translate(0.000000,500.000000) scale(0.100000,-0.100000)"
fill="#000000" stroke="none">
<path d="M1156 4638 c9 -35 18 -75 21 -90 3 -16 10 -28 15 -28 5 0 6 5 3 10
-3 6 -1 10 5 10 7 0 5 7 -4 16 -9 8 -17 22 -17 30 -1 8 -2 17 -4 22 -1 4 -5
24 -9 45 -5 20 -12 39 -16 42 -5 3 -2 -23 6 -57z"/>
<path d="M1190 4506 c0 -3 11 -51 24 -108 14 -57 46 -193 71 -303 58 -251 51
-233 77 -200 25 32 74 55 117 55 38 0 145 -29 651 -174 251 -73 681 -221 782
-271 134 -67 324 -210 435 -329 79 -84 124 -166 151 -273 21 -83 28 -94 34
-58 3 14 2 25 -2 25 -13 0 -18 48 -6 61 8 9 8 10 -1 5 -7 -4 -13 -5 -13 -3 0
3 -7 20 -15 39 l-14 35 40 0 c28 0 37 -3 27 -9 -9 -6 -6 -7 10 -3 13 4 22 2
22 -4 0 -6 -5 -11 -11 -11 -5 0 -7 -4 -4 -10 3 -6 -4 -10 -17 -11 -20 0 -20
-1 -5 -8 22 -8 24 -20 5 -33 -9 -7 -8 -8 5 -4 10 3 25 6 33 6 9 0 13 4 9 10
-3 5 -12 7 -20 3 -11 -4 -13 -1 -9 11 9 24 41 14 38 -11 -1 -7 -2 -17 -3 -23
0 -5 -7 -7 -15 -4 -8 3 -17 1 -21 -5 -4 -7 5 -12 22 -12 23 -2 24 -2 6 -6 -13
-2 -23 -9 -23 -14 0 -6 10 -8 23 -4 17 5 19 4 7 -4 -8 -6 -24 -11 -35 -12
l-20 0 20 -8 c11 -5 22 -5 25 -1 3 4 15 10 28 14 12 4 20 11 18 15 -3 4 1 8
10 8 8 0 0 -13 -21 -33 -19 -17 -35 -41 -35 -52 0 -11 -7 -25 -15 -32 -11 -9
-15 -9 -15 -1 0 7 -5 9 -10 6 -6 -4 -8 -11 -5 -16 4 -5 1 -9 -4 -9 -16 0 -13
16 5 34 8 9 11 16 5 16 -6 0 -8 7 -5 15 5 11 2 13 -10 9 -13 -5 -16 -21 -15
-80 1 -72 10 -97 25 -73 4 8 3 9 -4 5 -7 -4 -12 -2 -12 3 0 6 8 11 18 11 15 0
15 2 2 11 -12 7 -8 9 15 7 37 -4 47 -34 13 -41 l-23 -4 23 -2 c12 0 22 -7 22
-13 -1 -20 -29 -53 -37 -44 -5 4 0 13 9 20 19 14 14 26 -11 26 -14 0 -14 -2
-1 -10 11 -7 9 -11 -13 -19 -16 -6 -32 -11 -37 -11 -4 0 -11 -7 -14 -16 -3 -8
-2 -12 4 -9 6 3 10 2 10 -4 0 -6 6 -8 14 -5 19 7 32 -16 15 -27 -22 -14 -35
-11 -16 3 16 12 15 13 -9 14 -18 2 -24 -2 -20 -12 3 -7 -2 -20 -10 -29 -13
-13 -14 -15 -1 -15 9 0 17 6 20 13 3 6 4 2 4 -10 -1 -18 -6 -22 -21 -17 -15 5
-18 3 -13 -10 4 -10 1 -16 -8 -16 -9 0 -12 -6 -9 -15 4 -8 1 -15 -5 -15 -6 0
-17 -13 -25 -29 -8 -15 -38 -52 -66 -82 -27 -29 -50 -56 -50 -61 0 -4 -5 -8
-10 -8 -6 0 -35 -15 -64 -34 -30 -19 -86 -51 -125 -71 -39 -20 -71 -41 -71
-46 0 -5 -11 -9 -24 -9 -13 0 -29 -7 -36 -15 -7 -8 -16 -13 -20 -10 -5 3 -11
1 -15 -5 -7 -11 -118 -65 -180 -87 -22 -7 -49 -20 -60 -27 -11 -7 -58 -27
-105 -45 -47 -18 -98 -39 -115 -46 -42 -19 -108 -40 -117 -37 -5 1 -8 -2 -8
-8 0 -5 -10 -10 -23 -10 -13 0 -27 -3 -31 -7 -4 -5 -26 -13 -49 -19 -23 -6
-41 -16 -40 -21 1 -6 -5 -10 -15 -9 -20 3 -89 -11 -117 -23 -11 -5 -31 -12
-45 -14 -14 -3 -45 -12 -70 -21 -25 -8 -56 -18 -70 -21 -29 -5 -54 -28 -319
-283 -323 -311 -378 -362 -392 -362 -5 0 -8 -4 -5 -8 3 -5 -11 -22 -30 -37
-20 -16 -59 -53 -87 -83 -29 -29 -69 -63 -89 -75 -21 -11 -38 -24 -38 -29 0
-10 -9 -13 105 28 55 19 159 55 230 79 72 25 202 70 290 100 88 31 219 76 291
100 112 38 438 163 689 265 153 62 484 231 740 378 256 147 426 262 541 366
65 58 205 220 267 308 89 127 157 304 157 410 0 69 -18 158 -32 158 -10 0 -10
1 1 -36 8 -28 6 -33 -16 -43 -13 -6 -21 -16 -18 -21 3 -6 -1 -10 -9 -10 -9 0
-16 -4 -16 -10 0 -5 -5 -10 -10 -10 -7 0 -7 7 0 21 7 11 9 27 6 35 -3 7 3 18
12 23 16 10 16 10 0 11 -12 0 -16 6 -12 18 5 16 5 16 -6 0 -6 -10 -20 -18 -32
-18 -17 0 -18 3 -8 15 6 8 9 18 6 24 -3 5 0 12 6 14 8 3 6 6 -4 6 -10 1 -18 6
-18 13 0 9 -3 9 -12 0 -15 -15 -29 -15 -26 0 5 20 22 37 29 26 3 -5 12 -1 20
8 12 15 10 16 -23 12 -32 -3 -37 -1 -35 16 1 12 -7 24 -20 31 -21 11 -21 13
-7 33 14 20 14 23 0 28 -8 3 -20 3 -26 -1 -5 -3 -10 -1 -10 4 0 6 7 11 15 11
15 0 20 12 9 23 -4 3 -13 0 -21 -8 -8 -8 -24 -14 -36 -14 l-22 2 22 4 c21 4
41 33 24 33 -5 0 -12 -6 -14 -12 -3 -7 -6 -3 -6 9 -1 12 5 23 12 26 9 3 9 8
-2 18 -9 9 -11 9 -7 2 5 -9 0 -13 -16 -13 -13 0 -29 -5 -36 -12 -9 -9 -12 -9
-12 0 0 6 11 14 25 18 24 6 35 24 15 24 -5 0 -10 5 -10 11 0 5 4 8 8 5 4 -2 9
5 9 17 2 14 -1 17 -5 9 -5 -6 -30 -14 -58 -16 -50 -5 -39 6 19 18 15 4 27 12
27 18 0 9 -3 9 -11 1 -16 -16 -49 -4 -42 15 5 14 3 15 -8 5 -7 -7 -20 -13 -28
-13 -23 0 18 40 43 41 21 0 21 1 1 9 -15 6 -27 1 -46 -16 -14 -13 -29 -24 -35
-24 -5 0 -5 3 1 8 6 4 18 17 28 28 18 21 17 21 -18 17 -30 -3 -36 -1 -33 14 2
10 7 21 13 25 5 4 7 9 4 13 -3 3 -18 -7 -33 -21 -30 -31 -49 -25 -21 6 10 11
15 23 12 26 -4 4 -9 -1 -13 -10 -6 -17 -49 -22 -58 -7 -3 4 6 6 19 3 16 -3 25
0 25 8 0 7 -7 10 -15 6 -8 -3 -15 -1 -15 4 0 5 -8 7 -17 4 -14 -5 -15 -4 -4 4
8 6 19 9 25 8 6 -2 8 -1 3 1 -4 3 -4 10 0 16 5 9 3 9 -8 1 -8 -6 -30 -14 -49
-18 -25 -4 -31 -3 -20 4 8 5 11 10 5 10 -5 1 4 7 20 15 l30 15 -27 -4 c-26 -3
-38 7 -20 17 4 2 1 2 -7 0 -8 -2 -30 -6 -50 -8 l-36 -5 40 20 c22 11 31 18 20
15 -11 -2 -33 -7 -50 -10 -26 -5 -27 -4 -7 4 12 6 22 15 22 21 0 5 8 10 17 10
14 0 14 3 5 12 -10 10 -15 10 -21 -1 -10 -15 -86 -7 -97 11 -4 7 -2 8 4 4 7
-4 12 -2 12 3 0 17 -19 13 -42 -9 -12 -11 -27 -20 -32 -19 -6 0 -5 3 2 6 6 2
10 9 6 14 -3 5 0 8 7 7 6 -2 13 2 16 9 3 9 -4 10 -26 3 -17 -5 -30 -5 -30 -2
5 33 -3 47 -29 49 -42 4 -61 8 -68 16 -4 4 0 7 10 7 9 0 14 4 11 10 -4 6 -21
2 -45 -10 -50 -25 -59 -25 -29 0 l24 19 -30 2 c-16 1 -41 1 -55 0 l-25 -2 25
14 c14 8 30 10 35 7 19 -14 70 -20 85 -10 13 10 13 11 0 9 -35 -3 -61 2 -55
11 3 6 1 10 -4 10 -6 0 -11 -5 -11 -11 0 -5 -5 -7 -10 -4 -6 4 -8 11 -5 16 4
5 2 9 -4 9 -5 0 -13 -4 -16 -10 -3 -5 -32 -9 -63 -9 -33 1 -44 4 -27 6 16 3
37 11 47 18 16 11 17 13 3 18 -8 4 -15 1 -15 -6 0 -7 -14 -13 -33 -13 -17 -1
-24 1 -14 3 31 8 18 25 -15 19 -18 -3 -25 -3 -16 2 12 5 15 11 8 22 -8 12 -13
12 -42 -3 -25 -14 -28 -17 -9 -13 17 4 21 2 13 -6 -6 -6 -18 -8 -27 -5 -14 6
-14 9 1 32 l16 25 -33 -6 c-19 -3 -44 -7 -56 -10 -16 -3 -21 0 -17 10 3 8 13
12 25 9 10 -3 19 -1 19 5 0 5 -8 9 -17 8 -10 0 -17 4 -16 10 1 7 -6 10 -17 7
-16 -4 -19 -2 -14 13 4 14 3 15 -4 5 -7 -10 -14 -11 -31 -2 -15 9 -21 9 -21 1
0 -7 -6 -10 -12 -7 -7 2 -12 10 -10 16 2 12 -8 14 -32 5 -9 -3 -13 -11 -9 -17
3 -6 1 -7 -5 -3 -19 12 -14 36 6 30 14 -5 15 -4 2 5 -21 15 -40 14 -34 -3 3
-9 -6 -17 -26 -24 -18 -7 -28 -7 -25 -2 4 6 13 10 21 10 8 0 14 7 14 15 0 8
-4 15 -10 15 -5 0 -10 -4 -10 -10 0 -5 -5 -10 -11 -10 -5 0 -8 4 -5 9 3 4 -24
7 -59 6 -69 -2 -77 3 -24 14 18 4 34 12 37 19 2 8 -3 10 -15 6 -17 -5 -17 -5
0 9 10 8 28 13 40 11 20 -4 20 -4 -2 6 -16 7 -28 7 -36 0 -6 -5 -15 -7 -18 -3
-4 3 -7 -1 -7 -10 0 -9 -4 -17 -10 -17 -5 0 -7 8 -3 18 5 14 3 15 -8 5 -7 -7
-19 -13 -27 -13 -12 0 -12 2 -1 17 13 15 12 15 -9 4 -12 -7 -32 -9 -42 -6 -12
4 -20 2 -20 -5 0 -7 -10 -6 -27 4 -20 10 -42 12 -78 6 -27 -4 -52 -6 -54 -4
-2 2 1 4 8 4 7 0 10 4 7 8 -3 5 8 7 23 4 16 -2 39 2 52 9 26 15 89 19 89 6 0
-5 5 -5 11 -2 6 4 8 9 6 12 -8 8 -81 12 -92 5 -5 -4 -14 -7 -20 -8 -5 -1 -19
-5 -30 -8 -15 -5 -15 -4 3 5 12 7 22 16 22 21 0 4 7 8 15 8 8 0 15 4 15 8 0
15 -81 5 -98 -12 -16 -16 -15 -17 11 -7 35 14 55 14 42 2 -6 -5 -25 -12 -44
-16 -33 -7 -33 -6 -27 19 6 26 -7 37 -18 14 -4 -7 -4 -3 -2 10 3 14 -1 22 -10
22 -7 0 -11 -6 -9 -12 4 -9 -8 -14 -40 -15 -26 -1 -43 3 -40 8 4 5 14 9 23 9
9 1 28 7 42 16 l25 15 -25 -7 c-14 -4 -31 -9 -38 -12 -7 -2 -12 2 -10 9 4 20
-43 24 -54 5 -5 -9 -20 -16 -33 -16 -13 0 -27 -4 -30 -10 -3 -5 -12 -10 -18
-10 -8 0 -7 3 2 9 10 7 11 13 2 27 -6 11 -11 15 -11 9 0 -5 -4 -5 -8 2 -5 8
-21 9 -50 3 -24 -4 -40 -4 -35 0 24 24 132 13 117 -11 -3 -5 4 -9 15 -9 14 0
21 6 21 20 0 11 5 20 12 20 6 0 8 3 5 6 -4 4 -12 3 -19 -2 -7 -5 -20 -9 -28
-8 -8 1 -21 2 -29 3 -11 1 -11 4 -1 16 7 8 8 15 2 15 -5 0 -15 -6 -21 -14 -15
-17 -64 -9 -57 10 3 8 -1 14 -8 14 -9 0 -12 -7 -9 -18 4 -16 0 -18 -27 -14
-21 3 -35 0 -41 -9 -6 -10 -8 -8 -6 8 0 12 5 19 11 16 5 -3 6 -1 2 5 -5 9 -13
9 -27 2 -13 -8 -19 -7 -19 0 0 6 -7 4 -16 -4 -8 -9 -20 -16 -27 -16 -6 0 -2 7
9 15 18 14 18 15 -9 11 -38 -6 -102 5 -86 15 7 4 21 3 30 -2 11 -5 33 -5 56 0
21 5 29 10 18 10 -17 1 -17 3 -5 11 8 5 11 10 5 10 -5 -1 -18 -7 -28 -15 -14
-10 -26 -11 -48 -3 -26 9 -34 7 -53 -11 -28 -26 -36 -27 -29 -2 3 11 11 17 18
15 7 -3 15 2 19 11 5 13 13 16 34 11 l27 -6 -24 14 c-22 12 -28 12 -48 -1 -21
-14 -25 -14 -43 2 -11 10 -20 14 -20 8 0 -6 -18 -6 -50 1 -27 5 -50 14 -50 19
0 5 9 7 20 4 11 -3 20 -1 20 5 0 5 5 6 12 2 6 -4 8 -3 5 4 -8 11 -44 5 -65
-11 -11 -8 -11 -12 0 -18 10 -7 8 -9 -5 -9 -10 0 -16 -4 -13 -8 2 -4 -10 -9
-27 -9 -24 -2 -27 0 -13 6 17 7 18 8 3 14 -9 3 -19 2 -22 -3 -4 -6 -11 -10
-16 -10 -15 0 16 29 42 38 l23 9 -22 5 c-13 4 -22 2 -22 -5 0 -6 -6 -2 -14 8
-12 16 -17 17 -37 7 -23 -11 -23 -11 6 -7 17 3 23 2 15 -1 -62 -27 -80 -32
-80 -23 0 5 6 9 13 9 7 0 18 9 25 20 10 16 10 20 -1 20 -7 0 -18 -5 -24 -11
-6 -6 -17 -9 -24 -7 -9 3 -6 11 9 26 25 25 23 27 -12 11 -13 -6 -23 -17 -22
-23 2 -6 1 -8 -1 -3 -3 4 -14 7 -26 8 -15 0 -17 2 -7 6 22 9 66 53 52 53 -6 0
-12 -4 -12 -8 0 -5 -12 -15 -27 -23 -16 -8 -33 -21 -40 -29 -11 -13 -12 -12
-13 7 0 15 7 23 23 26 15 3 11 5 -13 6 l-35 2 28 15 c16 9 26 18 23 21 -3 3
-11 1 -18 -4 -8 -6 -22 -7 -33 -2 -11 4 -14 8 -7 8 7 1 10 6 7 11 -3 6 0 10 7
11 7 0 3 4 -10 10 -13 5 -21 13 -17 18 3 5 1 12 -4 16 -6 3 -8 12 -4 20 3 8 0
15 -6 15 -6 0 -11 -2 -11 -4z m260 -226 c-8 -5 -19 -10 -25 -10 -5 0 -3 5 5
10 8 5 20 10 25 10 6 0 3 -5 -5 -10z m170 -30 c22 -8 21 -9 -10 -7 -19 0 -42
-3 -50 -8 -13 -8 -13 -6 -1 8 15 18 23 19 61 7z m-195 -10 c-3 -5 -12 -10 -18
-10 -7 0 -6 4 3 10 19 12 23 12 15 0z m265 -11 c0 -4 -8 -9 -18 -11 -11 -3
-19 0 -19 8 0 7 9 12 19 11 10 -1 18 -4 18 -8z m-55 -29 c-3 -5 -10 -10 -16
-10 -5 0 -9 5 -9 10 0 6 7 10 16 10 8 0 12 -4 9 -10z m25 -10 c0 -5 -5 -10
-11 -10 -5 0 -7 5 -4 10 3 6 8 10 11 10 2 0 4 -4 4 -10z m157 -16 c-3 -3 -12
-4 -19 -1 -8 3 -5 6 6 6 11 1 17 -2 13 -5z m-57 -30 c0 -2 -9 -4 -21 -4 -11 0
-18 4 -14 10 5 8 35 3 35 -6z m70 6 c-8 -5 -19 -10 -25 -10 -5 0 -3 5 5 10 8
5 20 10 25 10 6 0 3 -5 -5 -10z m136 -11 c3 -6 -1 -18 -10 -27 -10 -11 -16
-12 -16 -4 0 7 5 12 10 12 17 0 11 18 -7 23 -16 4 -16 5 -1 6 9 0 20 -4 24
-10z m238 -24 c-4 -8 -8 -15 -10 -15 -2 0 -4 7 -4 15 0 8 4 15 10 15 5 0 7 -7
4 -15z m-344 -10 c-7 -8 -18 -15 -24 -15 -6 0 -2 7 8 15 25 19 32 19 16 0z
m185 5 c-3 -5 -12 -10 -18 -10 -7 0 -6 4 3 10 19 12 23 12 15 0z m-685 -10
c-8 -5 -22 -9 -30 -9 -10 0 -8 3 5 9 27 12 43 12 25 0z m640 0 c-8 -5 -22 -9
-30 -9 -10 0 -8 3 5 9 27 12 43 12 25 0z m180 -4 c0 -2 -7 -7 -16 -10 -8 -3
-12 -2 -9 4 6 10 25 14 25 6z m-63 -22 c-3 -3 -12 -4 -19 -1 -8 3 -5 6 6 6 11
1 17 -2 13 -5z m-42 -14 c-3 -5 -12 -10 -18 -10 -7 0 -6 4 3 10 19 12 23 12
15 0z m210 0 c-3 -5 -12 -10 -18 -10 -7 0 -6 4 3 10 19 12 23 12 15 0z m-118
-6 c-3 -3 -12 -4 -19 -1 -8 3 -5 6 6 6 11 1 17 -2 13 -5z m-314 -49 c-3 -9 -8
-14 -10 -11 -3 3 -2 9 2 15 9 16 15 13 8 -4z m362 -5 c-3 -5 -10 -10 -16 -10
-5 0 -9 5 -9 10 0 6 7 10 16 10 8 0 12 -4 9 -10z m192 -6 c-3 -3 -12 -4 -19
-1 -8 3 -5 6 6 6 11 1 17 -2 13 -5z m133 -23 c0 -6 -4 -12 -8 -15 -5 -3 -9 1
-9 9 0 8 4 15 9 15 4 0 8 -4 8 -9z m-130 -5 c0 -3 -4 -8 -10 -11 -5 -3 -10 -1
-10 4 0 6 5 11 10 11 6 0 10 -2 10 -4z m-400 -10 c0 -3 -4 -8 -10 -11 -5 -3
-10 -1 -10 4 0 6 5 11 10 11 6 0 10 -2 10 -4z m870 -67 c12 -9 11 -10 -8 -6
-14 3 -26 -1 -32 -11 -9 -16 -9 -16 -10 0 0 14 12 25 30 27 3 0 12 -4 20 -10z
m30 -19 c0 -5 -5 -10 -11 -10 -5 0 -7 5 -4 10 3 6 8 10 11 10 2 0 4 -4 4 -10z
m-36 -15 c-6 -16 -42 -30 -51 -21 -4 3 1 6 9 6 9 0 21 7 28 15 16 19 21 19 14
0z m-454 -5 c0 -5 -5 -10 -11 -10 -5 0 -7 5 -4 10 3 6 8 10 11 10 2 0 4 -4 4
-10z m570 -14 c0 -2 -11 -6 -25 -8 -14 -3 -25 -1 -25 3 0 5 11 9 25 9 14 0 25
-2 25 -4z m-143 -42 c-3 -3 -12 -4 -19 -1 -8 3 -5 6 6 6 11 1 17 -2 13 -5z
m70 -60 c-3 -3 -12 -4 -19 -1 -8 3 -5 6 6 6 11 1 17 -2 13 -5z m-227 -34 c8
-5 11 -10 5 -10 -5 0 -17 5 -25 10 -8 5 -10 10 -5 10 6 0 17 -5 25 -10z m105
-90 c-3 -5 -12 -10 -18 -10 -7 0 -6 4 3 10 19 12 23 12 15 0z m112 -6 c-3 -3
-12 -4 -19 -1 -8 3 -5 6 6 6 11 1 17 -2 13 -5z m438 -4 c-3 -5 -12 -10 -18
-10 -7 0 -6 4 3 10 19 12 23 12 15 0z m170 -10 c3 -6 -1 -7 -9 -4 -18 7 -21
14 -7 14 6 0 13 -4 16 -10z m42 -6 c-3 -3 -12 -4 -19 -1 -8 3 -5 6 6 6 11 1
17 -2 13 -5z m-97 -44 c0 -5 -5 -10 -11 -10 -5 0 -7 5 -4 10 3 6 8 10 11 10 2
0 4 -4 4 -10z m-440 -31 c0 -9 -31 -21 -38 -14 -3 3 0 5 7 5 7 0 10 4 7 8 -3
5 1 9 9 9 8 0 15 -4 15 -8z m56 -57 c-10 -2 -22 0 -28 6 -6 6 0 7 19 4 21 -5
23 -7 9 -10z m52 4 c-10 -7 -18 -18 -18 -25 0 -6 -5 -11 -10 -11 -14 0 5 36
22 43 22 9 24 7 6 -7z m152 4 c-8 -5 -22 -9 -30 -9 -10 0 -8 3 5 9 27 12 43
12 25 0z m377 -6 c-3 -3 -12 -4 -19 -1 -8 3 -5 6 6 6 11 1 17 -2 13 -5z m-30
-50 c-3 -3 -12 -4 -19 -1 -8 3 -5 6 6 6 11 1 17 -2 13 -5z m127 -3 c3 -5 -6
-8 -20 -8 -19 0 -22 2 -13 8 18 11 26 11 33 0z m61 -10 c-3 -6 -11 -11 -17
-11 -6 0 -6 6 2 15 14 17 26 13 15 -4z m-475 5 c0 -3 -4 -8 -10 -11 -5 -3 -10
-1 -10 4 0 6 5 11 10 11 6 0 10 -2 10 -4z m-140 -10 c0 -2 -7 -9 -15 -16 -13
-11 -14 -10 -9 4 5 14 24 23 24 12z m570 -26 c-6 -11 -18 -20 -28 -19 -14 0
-14 2 -2 6 8 3 19 12 23 19 13 22 19 16 7 -6z m-550 0 c0 -5 -8 -10 -17 -10
-15 0 -16 2 -3 10 19 12 20 12 20 0z m65 -10 c-3 -5 -12 -10 -18 -10 -7 0 -6
4 3 10 19 12 23 12 15 0z m402 4 c-3 -3 -12 -4 -19 -1 -8 3 -5 6 6 6 11 1 17
-2 13 -5z m156 -21 c-7 -2 -21 -2 -30 0 -10 3 -4 5 12 5 17 0 24 -2 18 -5z
m-559 -23 c-10 -4 -26 -5 -34 -2 -11 4 -8 8 10 12 31 8 51 -1 24 -10z m126 10
c0 -5 -5 -10 -11 -10 -5 0 -7 5 -4 10 3 6 8 10 11 10 2 0 4 -4 4 -10z m85 -10
c-3 -5 -12 -10 -18 -10 -7 0 -6 4 3 10 19 12 23 12 15 0z m75 -4 c0 -2 -8 -10
-17 -17 -16 -13 -17 -12 -4 4 13 16 21 21 21 13z m230 -10 c0 -3 -4 -8 -10
-11 -5 -3 -10 -1 -10 4 0 6 5 11 10 11 6 0 10 -2 10 -4z m100 -10 c0 -2 -11
-6 -25 -8 -14 -3 -25 -1 -25 3 0 5 11 9 25 9 14 0 25 -2 25 -4z m-573 -21 c0
-8 -9 -15 -19 -15 -16 0 -17 2 -6 15 17 19 25 19 25 0z m27 0 c-4 -8 -10 -12
-15 -9 -11 6 -2 24 11 24 5 0 7 -7 4 -15z m173 -21 c-3 -3 -12 -4 -19 -1 -8 3
-5 6 6 6 11 1 17 -2 13 -5z m-160 -17 c7 0 10 -4 7 -9 -3 -4 0 -8 5 -8 6 0 11
5 11 10 0 6 5 10 11 10 5 0 7 -4 4 -10 -9 -14 8 -12 25 3 12 10 12 9 2 -4 -18
-23 -69 -22 -94 3 -20 20 -20 21 -2 14 10 -5 24 -9 31 -9z m121 -23 c24 5 24
4 -4 -9 -32 -14 -49 -39 -38 -56 7 -12 46 -1 56 15 9 13 10 3 2 -18 -3 -8 -12
-12 -19 -10 -7 3 -16 1 -20 -5 -4 -7 5 -11 22 -12 15 -1 39 -5 53 -9 20 -6 15
-8 -23 -8 -26 0 -51 -2 -54 -6 -4 -3 8 -6 25 -6 18 0 32 -4 32 -9 0 -17 42
-24 51 -10 7 12 9 11 10 -1 1 -8 1 -21 0 -29 -2 -7 2 -10 8 -7 5 4 12 3 14 -2
3 -4 -16 -6 -41 -5 -26 1 -57 2 -70 2 -19 1 -22 5 -17 22 5 13 3 19 -3 15 -9
-6 -27 21 -24 37 1 4 -2 7 -8 7 -5 0 -7 6 -4 14 3 8 -3 16 -15 19 -12 3 -21
10 -21 16 0 6 7 8 15 5 8 -4 15 -1 15 6 0 7 8 19 18 27 16 14 16 14 0 9 -15
-5 -16 -3 -5 15 10 17 13 17 15 3 3 -11 11 -14 30 -10z m449 4 c-3 -8 -6 -5
-6 6 -1 11 2 17 5 13 3 -3 4 -12 1 -19z m-517 -34 c0 -7 -8 -11 -17 -9 -10 2
-22 4 -26 4 -5 1 -6 5 -2 10 8 14 45 9 45 -5z m80 2 c0 -10 -32 -36 -43 -36
-7 1 -1 10 12 20 23 20 31 24 31 16z m510 -30 c0 -3 -4 -8 -10 -11 -5 -3 -10
-1 -10 4 0 6 5 11 10 11 6 0 10 -2 10 -4z m-20 -26 c8 -5 11 -10 5 -10 -5 0
-17 5 -25 10 -8 5 -10 10 -5 10 6 0 17 -5 25 -10z m-395 -18 c-3 -3 -11 0 -18
7 -9 10 -8 11 6 5 10 -3 15 -9 12 -12z m75 -6 c0 -2 -8 -10 -17 -17 -16 -13
-17 -12 -4 4 13 16 21 21 21 13z m369 -12 c6 -6 -10 -24 -22 -23 -7 0 -6 3 2
6 10 4 8 9 -10 20 l-24 14 25 -7 c14 -3 27 -8 29 -10z m-69 -24 c8 -5 11 -10
5 -10 -5 0 -17 5 -25 10 -8 5 -10 10 -5 10 6 0 17 -5 25 -10z m35 -60 c-3 -5
-12 -10 -18 -10 -7 0 -6 4 3 10 19 12 23 12 15 0z m-347 -12 c-5 -14 -48 -31
-48 -18 0 6 7 10 15 10 8 0 15 5 15 10 0 6 5 10 11 10 6 0 9 -5 7 -12z m439
-6 c0 -11 -10 -19 -25 -20 -15 -1 -22 3 -19 11 2 6 9 12 15 12 5 0 14 3 18 8
11 11 13 9 11 -11z m-112 -22 c-3 -5 -12 -10 -18 -10 -7 0 -6 4 3 10 19 12 23
12 15 0z m-252 -17 c-7 -2 -19 -2 -25 0 -7 3 -2 5 12 5 14 0 19 -2 13 -5z
m-83 -7 c0 -2 -7 -6 -15 -10 -8 -3 -15 -1 -15 4 0 6 7 10 15 10 8 0 15 -2 15
-4z m493 -11 c-3 -9 -8 -14 -10 -11 -3 3 -2 9 2 15 9 16 15 13 8 -4z m-456 -1
c-3 -3 -12 -4 -19 -1 -8 3 -5 6 6 6 11 1 17 -2 13 -5z m421 -14 c-7 -11 -22
-20 -33 -19 -14 0 -16 2 -5 6 8 4 21 12 28 20 20 19 24 16 10 -7z m125 -32 c2
-7 1 -22 -4 -33 -4 -11 -8 -14 -8 -7 -1 14 -37 16 -46 2 -3 -5 -11 -10 -17
-10 -6 0 0 9 13 21 13 12 23 25 22 30 -4 14 34 11 40 -3z m-103 -32 c0 -3 -4
-8 -10 -11 -5 -3 -10 -1 -10 4 0 6 5 11 10 11 6 0 10 -2 10 -4z m84 -19 c11
-11 8 -16 -15 -30 -16 -9 -29 -12 -29 -8 0 5 7 12 16 15 9 4 14 13 10 21 -7
18 1 19 18 2z m-569 -17 c-26 -11 -35 -12 -35 -2 0 4 12 8 28 9 23 1 24 1 7
-7z m534 6 c-2 -2 -17 -6 -34 -10 -22 -5 -26 -4 -15 4 14 9 59 15 49 6z m46
-33 c-2 -10 -4 -19 -5 -20 -2 -2 -3 -7 -4 -12 0 -5 -4 -12 -8 -15 -5 -3 -6 -3
-3 0 2 4 0 15 -5 25 -8 13 -6 20 7 28 10 6 19 11 20 11 1 0 0 -8 -2 -17z
m-609 -2 c-4 -5 0 -12 6 -14 8 -3 6 -6 -4 -6 -10 -1 -18 6 -18 14 0 8 5 15 11
15 5 0 8 -4 5 -9z m485 -34 c-10 -9 -11 -8 -5 6 3 10 9 15 12 12 3 -3 0 -11
-7 -18z m59 3 c-24 -15 -36 -11 -14 4 10 8 21 12 24 10 2 -3 -2 -9 -10 -14z
m-561 -21 c-5 -11 -6 -19 0 -19 5 0 11 6 14 14 6 14 87 27 87 14 0 -5 -16 -8
-35 -8 -21 0 -37 -6 -43 -16 -7 -12 -15 -14 -33 -8 -13 4 -33 7 -44 5 -17 -2
-15 1 9 22 33 29 62 26 45 -4z m51 -39 c-8 -5 -19 -10 -25 -10 -5 0 -3 5 5 10
8 5 20 10 25 10 6 0 3 -5 -5 -10z m-20 -30 c0 -5 -5 -10 -11 -10 -5 0 -7 5 -4
10 3 6 8 10 11 10 2 0 4 -4 4 -10z m-80 -70 c0 -5 -10 -10 -22 -9 -22 0 -22 1
-3 9 11 5 21 9 23 9 1 1 2 -3 2 -9z m95 -10 c-3 -5 -12 -10 -18 -10 -7 0 -6 4
3 10 19 12 23 12 15 0z m-55 -4 c0 -2 -7 -6 -15 -10 -8 -3 -15 -1 -15 4 0 6 7
10 15 10 8 0 15 -2 15 -4z m545 -16 c-3 -5 -12 -10 -18 -10 -7 0 -6 4 3 10 19
12 23 12 15 0z m-585 -61 c0 -4 -7 -9 -15 -13 -9 -3 -15 0 -15 8 0 7 7 13 15
13 8 0 15 -4 15 -8z m-10 -39 c20 -6 21 -8 5 -8 -11 0 -29 3 -40 8 -25 11 1
11 35 0z m-35 -30 c8 -13 -5 -13 -25 0 -13 8 -13 10 2 10 9 0 20 -4 23 -10z
m-70 -101 c-4 -5 -12 -9 -18 -8 -9 0 -8 2 1 6 6 2 9 10 6 15 -4 7 -2 8 5 4 6
-4 9 -12 6 -17z m25 -69 c0 -5 -10 -10 -22 -9 -22 0 -22 1 -3 9 11 5 21 9 23
9 1 1 2 -3 2 -9z m30 -54 c0 -3 -4 -8 -10 -11 -5 -3 -10 -1 -10 4 0 6 5 11 10
11 6 0 10 -2 10 -4z"/>
<path d="M3496 3044 c-4 -12 -2 -15 9 -10 8 3 15 2 15 -3 0 -9 48 -2 54 8 2 3
-6 6 -17 7 -12 0 -29 4 -38 8 -11 5 -19 1 -23 -10z"/>
<path d="M1345 4420 c-3 -5 -1 -10 4 -10 6 0 11 5 11 10 0 6 -2 10 -4 10 -3 0
-8 -4 -11 -10z"/>
<path d="M1630 4279 c0 -5 5 -7 10 -4 6 3 10 8 10 11 0 2 -4 4 -10 4 -5 0 -10
-5 -10 -11z"/>
<path d="M1490 4276 c0 -9 30 -14 35 -6 4 6 -3 10 -14 10 -12 0 -21 -2 -21 -4z"/>
<path d="M2156 4243 c-6 -14 -5 -15 5 -6 7 7 10 15 7 18 -3 3 -9 -2 -12 -12z"/>
<path d="M1901 4233 c-1 -17 16 -25 25 -12 4 7 3 9 -4 5 -5 -3 -13 0 -15 6 -4
9 -6 10 -6 1z"/>
<path d="M1945 4199 c-11 -17 1 -21 15 -4 8 9 8 15 2 15 -6 0 -14 -5 -17 -11z"/>
<path d="M2148 4203 c7 -3 16 -2 19 1 4 3 -2 6 -13 5 -11 0 -14 -3 -6 -6z"/>
<path d="M2350 4189 c0 -5 5 -7 10 -4 6 3 10 8 10 11 0 2 -4 4 -10 4 -5 0 -10
-5 -10 -11z"/>
<path d="M2395 4110 c-3 -6 1 -7 9 -4 18 7 21 14 7 14 -6 0 -13 -4 -16 -10z"/>
<path d="M2596 4112 c-3 -5 1 -9 9 -9 8 0 12 4 9 9 -3 4 -7 8 -9 8 -2 0 -6 -4
-9 -8z"/>
<path d="M2346 4101 c-4 -5 3 -7 14 -4 23 6 26 13 6 13 -8 0 -17 -4 -20 -9z"/>
<path d="M2536 4035 c-15 -14 -21 -25 -14 -25 7 0 21 12 31 25 23 32 17 32
-17 0z"/>
<path d="M2445 4030 c-3 -4 2 -11 11 -14 22 -8 34 -7 34 3 0 12 -39 21 -45 11z"/>
<path d="M2588 4033 c6 -2 18 -2 25 0 6 3 1 5 -13 5 -14 0 -19 -2 -12 -5z"/>
<path d="M2683 3990 c-13 -5 -23 -15 -23 -23 0 -11 15 -13 63 -8 4 1 7 6 7 12
0 8 -4 8 -12 1 -8 -5 -22 -6 -33 -1 -19 7 -19 8 2 8 12 1 25 6 28 11 7 12 -2
12 -32 0z"/>
<path d="M2800 3949 c0 -5 5 -7 10 -4 6 3 10 8 10 11 0 2 -4 4 -10 4 -5 0 -10
-5 -10 -11z"/>
<path d="M3045 3950 c3 -5 8 -10 11 -10 2 0 4 5 4 10 0 6 -5 10 -11 10 -5 0
-7 -4 -4 -10z"/>
<path d="M2855 3930 c3 -5 8 -10 11 -10 2 0 4 5 4 10 0 6 -5 10 -11 10 -5 0
-7 -4 -4 -10z"/>
<path d="M3130 3910 c-9 -6 -10 -10 -3 -10 6 0 15 5 18 10 8 12 4 12 -15 0z"/>
<path d="M3080 3836 c0 -2 7 -6 15 -10 8 -3 15 -1 15 4 0 6 -7 10 -15 10 -8 0
-15 -2 -15 -4z"/>
<path d="M3176 3783 c-6 -14 -5 -15 5 -6 7 7 10 15 7 18 -3 3 -9 -2 -12 -12z"/>
<path d="M3338 3703 c7 -3 16 -2 19 1 4 3 -2 6 -13 5 -11 0 -14 -3 -6 -6z"/>
<path d="M3535 3700 c3 -5 11 -10 16 -10 6 0 7 5 4 10 -3 6 -11 10 -16 10 -6
0 -7 -4 -4 -10z"/>
<path d="M3400 3660 c0 -6 7 -10 15 -10 8 0 15 2 15 4 0 2 -7 6 -15 10 -8 3
-15 1 -15 -4z"/>
<path d="M3471 3656 c2 -2 18 -6 34 -10 22 -5 26 -4 15 4 -14 9 -59 15 -49 6z"/>
<path d="M3627 3649 c7 -7 15 -10 18 -7 3 3 -2 9 -12 12 -14 6 -15 5 -6 -5z"/>
<path d="M3520 3620 c0 -5 5 -10 11 -10 5 0 7 5 4 10 -3 6 -8 10 -11 10 -2 0
-4 -4 -4 -10z"/>
<path d="M3680 3611 c24 -20 40 -26 40 -16 0 2 -15 12 -32 20 l-33 16 25 -20z"/>
<path d="M3791 3533 c0 -5 17 -21 37 -37 l37 -30 -34 37 c-36 38 -42 42 -40
30z"/>
<path d="M3740 3500 c-9 -6 -10 -10 -3 -10 6 0 15 5 18 10 8 12 4 12 -15 0z"/>
<path d="M1620 3453 c1 -9 85 -73 97 -73 4 0 -3 9 -17 21 -54 43 -80 60 -80
52z"/>
<path d="M3928 3404 c18 -14 30 -30 27 -35 -4 -5 -1 -9 4 -9 6 0 11 4 11 8 0
11 -54 62 -66 62 -5 0 6 -12 24 -26z"/>
<path d="M1744 3337 c37 -49 65 -116 72 -178 3 -30 8 -57 11 -61 2 -5 0 -8 -5
-8 -5 0 -9 -10 -8 -22 1 -13 -4 -33 -12 -45 -8 -13 -12 -29 -9 -37 3 -8 -2
-17 -11 -21 -14 -5 -14 -7 -2 -15 13 -8 12 -10 -3 -10 -10 0 -15 -4 -12 -10 3
-5 1 -10 -5 -10 -6 0 -8 -4 -5 -10 3 -5 1 -10 -5 -10 -6 0 -9 -4 -5 -9 3 -5
-1 -15 -8 -23 -7 -7 -13 -24 -14 -38 -1 -14 -7 -26 -13 -28 -5 -2 -8 -8 -4
-13 3 -5 0 -9 -6 -9 -6 0 -8 -4 -5 -10 3 -5 1 -10 -4 -10 -6 0 -10 -3 -10 -7
1 -5 -4 -24 -12 -43 -7 -19 -12 -38 -11 -42 1 -5 -3 -8 -10 -8 -6 0 -9 -3 -5
-6 3 -3 -3 -23 -14 -42 -10 -20 -19 -42 -19 -49 0 -7 -5 -13 -12 -13 -6 0 -9
-3 -5 -6 7 -8 -23 -86 -37 -96 -7 -5 -7 -8 2 -8 7 0 5 -7 -7 -19 -10 -10 -22
-34 -26 -52 -4 -19 -12 -40 -17 -46 -6 -7 -7 -13 -2 -13 5 0 3 -4 -4 -8 -7 -5
-14 -19 -17 -31 -2 -13 -9 -29 -16 -37 -6 -8 -8 -14 -4 -14 5 0 0 -9 -10 -20
-14 -15 -15 -20 -4 -20 10 -1 9 -3 -3 -11 -10 -5 -15 -16 -12 -24 4 -8 2 -15
-3 -15 -13 0 -31 -41 -27 -62 1 -10 -2 -18 -7 -18 -5 0 -9 -7 -9 -15 0 -8 -5
-15 -11 -15 -5 0 -7 -4 -4 -10 3 -5 1 -10 -5 -10 -6 0 -8 -5 -5 -11 4 -5 -1
-19 -11 -30 -9 -10 -14 -19 -10 -19 5 0 -2 -16 -13 -36 -12 -19 -19 -40 -16
-45 4 -5 1 -9 -4 -9 -6 0 -11 -9 -11 -20 0 -11 -6 -20 -12 -20 -9 0 -8 -4 2
-10 8 -5 10 -10 5 -10 -14 0 -46 -55 -38 -64 3 -3 0 -6 -7 -6 -7 0 -11 -3 -7
-6 3 -4 0 -19 -8 -34 -8 -15 -11 -30 -8 -34 4 -3 1 -6 -5 -6 -7 0 -11 -3 -10
-7 1 -5 -9 -30 -22 -58 -13 -27 -24 -54 -25 -60 0 -5 -4 -16 -8 -22 -5 -7 -5
-13 -1 -13 4 0 0 -8 -9 -18 -9 -10 -18 -27 -20 -38 -2 -10 -12 -37 -22 -59 -9
-22 -18 -46 -19 -53 -1 -7 -10 -22 -20 -33 -10 -12 -15 -27 -12 -35 3 -7 1
-16 -5 -20 -11 -6 -32 -52 -33 -69 -1 -5 -7 -16 -14 -23 -7 -8 -10 -18 -7 -23
4 -5 1 -9 -6 -9 -7 0 -9 -3 -6 -7 4 -3 2 -13 -5 -20 -9 -11 -9 -16 1 -22 9 -6
8 -10 -6 -13 -12 -3 -24 -26 -37 -67 -11 -33 -23 -61 -28 -61 -5 0 -6 -4 -3
-10 3 -6 1 -10 -4 -10 -6 0 -11 -6 -11 -14 0 -8 -9 -31 -21 -50 -12 -20 -18
-36 -15 -36 11 0 941 892 957 918 27 44 601 1007 675 1134 98 166 145 193 337
193 66 0 106 4 104 10 -2 5 -38 10 -80 10 -42 0 -77 4 -77 9 0 5 -6 4 -12 -1
-7 -6 -33 -13 -58 -16 -25 -3 -55 -9 -67 -13 -14 -4 -23 -2 -23 5 0 6 7 8 17
4 12 -5 14 -3 8 7 -6 10 -4 12 11 6 14 -5 16 -4 8 4 -9 9 -17 9 -34 0 -27 -15
-41 -3 -17 14 15 12 10 13 -33 13 -27 0 -56 5 -63 11 -8 7 -18 7 -27 2 -20
-13 -40 -12 -40 1 0 6 7 9 15 6 8 -4 17 -2 21 4 4 6 -9 9 -33 8 -60 -3 -85 0
-79 10 4 5 -4 7 -16 4 -19 -4 -20 -3 -8 6 8 6 11 11 5 11 -5 -1 -19 -7 -30
-16 -17 -13 -18 -16 -5 -24 8 -5 11 -10 5 -10 -5 1 -19 7 -29 15 -16 12 -17
15 -4 15 9 0 18 10 21 23 5 20 5 20 -7 5 -14 -20 -31 -25 -20 -7 4 7 1 10 -7
7 -8 -3 -13 -10 -12 -16 1 -5 -7 -8 -17 -5 -11 3 -20 10 -20 15 0 5 5 6 10 3
6 -3 10 -1 10 4 0 6 -7 11 -16 11 -14 0 -15 2 -3 17 13 15 12 15 -8 5 -31 -17
-61 -15 -65 4 -3 13 -6 13 -27 -5 -13 -12 -29 -21 -35 -21 -6 0 -4 4 4 10 23
14 4 23 -22 10 -19 -10 -21 -10 -10 1 17 18 15 34 -2 20 -11 -9 -16 -9 -21 0
-6 8 -10 7 -16 -2 -6 -10 -9 -8 -9 9 0 22 -14 30 -24 13 -4 -5 0 -11 6 -14 7
-3 3 -4 -10 -4 -14 1 -21 6 -18 14 3 7 1 13 -4 13 -6 0 -10 -5 -10 -11 0 -8
-4 -9 -13 0 -8 6 -17 8 -20 4 -4 -3 -7 1 -7 10 0 11 6 15 18 11 12 -4 14 -3 4
4 -7 5 -24 7 -38 4 -20 -4 -23 -1 -18 13 6 15 4 15 -13 5 -16 -10 -25 -9 -52
5 -18 9 -30 19 -27 22 5 6 -48 63 -59 63 -3 0 5 -15 19 -33z m148 -109 c-7 -7
-12 -8 -12 -2 0 14 12 26 19 19 2 -3 -1 -11 -7 -17z m318 -67 c0 -5 -9 -11
-21 -14 -16 -4 -18 -3 -8 9 13 16 29 19 29 5z m67 -67 c-3 -3 -12 -4 -19 -1
-8 3 -5 6 6 6 11 1 17 -2 13 -5z m103 -9 c-7 -9 -15 -13 -19 -10 -3 3 1 10 9
15 21 14 24 12 10 -5z m183 -25 c-10 -11 -23 -20 -30 -20 -9 0 -7 6 5 19 24
26 47 27 25 1z m-110 -117 c-7 -2 -19 -2 -25 0 -7 3 -2 5 12 5 14 0 19 -2 13
-5z m-276 -49 c-3 -3 -12 -4 -19 -1 -8 3 -5 6 6 6 11 1 17 -2 13 -5z m33 -48
c0 -3 -4 -8 -10 -11 -5 -3 -10 -1 -10 4 0 6 5 11 10 11 6 0 10 -2 10 -4z
m-457 -753 c-7 -2 -19 -2 -25 0 -7 3 -2 5 12 5 14 0 19 -2 13 -5z"/>
<path d="M3969 3349 c-12 -7 -11 -9 3 -9 9 0 18 -6 21 -12 2 -7 7 -11 10 -8 3
3 0 13 -7 22 -8 11 -17 14 -27 7z"/>
<path d="M4039 3278 c17 -18 31 -36 31 -40 0 -5 5 -8 11 -8 12 0 -52 80 -64
80 -4 0 6 -15 22 -32z"/>
<path d="M2025 3240 c-3 -6 1 -7 9 -4 18 7 21 14 7 14 -6 0 -13 -4 -16 -10z"/>
<path d="M4104 3196 c0 -14 7 -26 14 -26 17 0 15 -10 -5 -26 -17 -13 -17 -14
0 -8 20 7 49 -23 42 -43 -2 -7 0 -13 5 -13 5 0 16 -12 24 -27 8 -16 15 -24 16
-19 0 7 -86 174 -95 184 -2 2 -2 -8 -1 -22z"/>
<path d="M4036 3132 c-7 -12 41 -49 51 -38 3 3 1 6 -5 6 -6 0 -9 7 -6 15 4 8
1 15 -5 15 -6 0 -11 -6 -12 -12 0 -7 -4 -4 -8 6 -5 13 -10 16 -15 8z"/>
<path d="M2515 3110 c-3 -5 -1 -10 4 -10 6 0 11 5 11 10 0 6 -2 10 -4 10 -3 0
-8 -4 -11 -10z"/>
<path d="M4108 3083 c7 -3 16 -2 19 1 4 3 -2 6 -13 5 -11 0 -14 -3 -6 -6z"/>
<path d="M4120 3016 c0 -2 9 -6 20 -9 11 -3 18 -1 14 4 -5 9 -34 13 -34 5z"/>
<path d="M4193 3005 c0 -8 4 -12 9 -9 4 3 8 9 8 15 0 5 -4 9 -8 9 -5 0 -9 -7
-9 -15z"/>
<path d="M4178 2953 c7 -3 16 -2 19 1 4 3 -2 6 -13 5 -11 0 -14 -3 -6 -6z"/>
<path d="M3575 2680 c-3 -5 -1 -10 4 -10 6 0 11 5 11 10 0 6 -2 10 -4 10 -3 0
-8 -4 -11 -10z"/>
<path d="M3513 2629 c1 -10 6 -18 11 -16 16 5 18 24 2 30 -10 4 -14 0 -13 -14z"/>
</g>
</svg>
